<?xml version="1.0" standalone="no"?>
<!DOCTYPE svg PUBLIC "-//W3C//DTD SVG 20010904//EN"
 "http://www.w3.org/TR/2001/REC-SVG-20010904/DTD/svg10.dtd">
<svg version="1.0" xmlns="http://www.w3.org/2000/svg"
 width="3127.000000pt" height="3127.000000pt" viewBox="0 0 3127.000000 3127.000000"
 preserveAspectRatio="xMidYMid meet">
<metadata>
Created by potrace 1.14, written by Peter Selinger 2001-2017
</metadata>
<g transform="translate(0.000000,3127.000000) scale(0.100000,-0.100000)"
fill="#000000" stroke="none">
<path d="M15665 30025 c-539 -84 -1022 -429 -1399 -999 -257 -387 -455 -862
-596 -1424 -38 -152 -150 -695 -166 -805 -5 -35 -10 -47 -20 -43 -8 3 -64 13
-126 22 -143 21 -349 14 -493 -16 -121 -26 -283 -85 -373 -138 l-67 -38 -1
150 c0 174 -20 276 -79 402 -213 463 -803 647 -1300 406 -398 -194 -636 -591
-696 -1162 -16 -151 -6 -473 20 -651 40 -276 71 -403 244 -1009 180 -628 227
-847 250 -1168 l12 -173 59 143 c158 387 420 862 765 1388 l76 115 7 -110 c29
-467 168 -998 400 -1532 l70 -162 -23 -29 c-13 -16 -80 -93 -148 -172 -291
-337 -602 -753 -891 -1191 l-116 -176 -85 82 c-143 138 -352 282 -547 377 -78
38 -83 42 -78 67 32 149 47 699 26 912 -75 743 -369 1408 -868 1963 -218 242
-441 397 -704 489 -17 6 -17 8 1 39 60 106 75 285 32 402 -98 272 -394 408
-663 306 l-51 -19 -42 30 c-158 113 -386 56 -472 -119 -24 -48 -28 -70 -28
-137 0 -66 5 -90 26 -135 43 -91 126 -159 215 -178 34 -7 38 -11 55 -67 10
-33 34 -85 53 -115 l34 -54 -41 -25 c-161 -94 -293 -256 -351 -432 -38 -112
-49 -207 -43 -349 15 -350 200 -734 545 -1131 102 -118 274 -288 540 -533 217
-200 641 -642 642 -668 0 -5 -15 -8 -34 -8 -54 0 -253 -37 -348 -64 l-88 -26
-77 78 c-135 135 -264 186 -463 185 -122 -1 -214 -20 -329 -66 l-58 -24 -140
136 c-76 75 -175 170 -219 211 -44 41 -113 107 -154 145 -41 39 -115 107 -165
150 -49 44 -95 84 -101 90 -56 51 -166 148 -194 171 -19 16 -37 31 -40 34 -14
15 -118 100 -122 100 -3 0 -11 -64 -18 -142 -11 -129 -31 -263 -42 -273 -2 -2
-24 3 -48 11 -60 21 -160 14 -223 -16 -154 -73 -222 -261 -149 -415 30 -63 87
-122 140 -146 18 -8 32 -19 32 -26 0 -16 -33 -73 -42 -73 -5 0 -8 -4 -8 -10 0
-12 -110 -170 -164 -235 -22 -27 -50 -61 -61 -74 -47 -58 -107 -122 -209 -226
-76 -77 -110 -105 -114 -95 -2 8 -27 65 -54 125 -144 322 -398 697 -576 852
-254 221 -511 327 -827 339 -266 11 -511 -50 -751 -188 -427 -245 -713 -676
-779 -1176 -69 -518 101 -1085 486 -1627 43 -60 89 -123 102 -140 l24 -29 -71
-65 c-82 -75 -414 -407 -496 -496 -174 -188 -350 -393 -450 -525 -14 -18 -30
-38 -35 -44 -19 -20 -219 -292 -275 -372 -151 -219 -407 -643 -476 -791 l-29
-62 -422 0 -423 -1 0 -80 0 -80 -85 0 -85 0 0 -178 0 -178 38 -18 c43 -20 121
-77 122 -88 0 -8 15 -26 60 -76 37 -39 66 -107 80 -187 9 -53 11 -330 9 -1165
-1 -602 -2 -1706 -1 -2452 l2 -1357 78 -3 c71 -3 77 -5 80 -25 2 -13 10 -23
18 -23 9 0 14 -8 13 -18 -3 -36 1 -52 16 -52 8 0 15 -5 15 -11 0 -7 106 -10
347 -8 248 1 347 -1 346 -9 -2 -6 3 -9 10 -7 7 2 45 -41 87 -98 75 -102 202
-266 250 -321 173 -201 427 -463 584 -602 l78 -70 2 -170 c2 -140 6 -183 25
-248 48 -171 131 -310 260 -436 105 -102 215 -170 348 -216 132 -45 223 -58
368 -51 144 6 257 36 388 102 l88 44 159 -74 c246 -114 399 -178 730 -302 474
-178 1261 -403 1930 -552 215 -47 647 -136 700 -143 23 -3 25 -6 20 -43 -12
-99 -3 -300 18 -377 118 -436 412 -671 945 -755 136 -21 497 -24 657 -5 644
78 1116 261 1741 678 l131 87 212 -11 c1137 -63 2221 -72 3091 -27 317 17 294
28 283 -138 -10 -167 -27 -306 -54 -456 -26 -139 -46 -225 -162 -681 -97 -382
-162 -722 -162 -853 0 -27 -7 -36 -45 -60 -57 -37 -175 -162 -219 -235 -93
-153 -116 -338 -62 -497 42 -124 97 -208 210 -321 159 -159 348 -271 593 -353
657 -219 1455 -108 2149 300 195 114 443 296 608 445 l59 54 32 -80 c41 -103
115 -224 188 -312 33 -39 55 -74 50 -78 -12 -11 -278 -173 -692 -422 -739
-445 -1097 -703 -1405 -1013 -243 -244 -428 -494 -577 -780 -114 -219 -162
-406 -163 -635 0 -265 62 -470 212 -695 198 -298 538 -520 922 -602 122 -26
469 -26 590 1 366 79 675 258 966 558 389 402 690 1003 878 1753 49 197 106
478 186 925 38 212 80 439 92 504 l23 119 92 37 c405 163 684 507 797 985 84
356 72 911 -29 1349 l-14 58 109 114 c223 232 443 496 688 823 l154 205 42 -3
c70 -4 179 27 245 69 33 22 102 80 153 130 51 49 95 90 98 90 3 0 17 -27 32
-59 61 -130 153 -215 245 -227 89 -11 153 9 213 65 27 26 50 47 50 46 0 -1 -7
-51 -15 -113 -46 -348 -38 -728 21 -1077 33 -199 129 -518 208 -697 14 -32 21
-57 14 -55 -22 5 -138 -148 -188 -248 -74 -150 -85 -201 -84 -390 0 -148 2
-166 28 -245 16 -47 40 -107 53 -135 83 -165 264 -338 419 -399 l40 -17 2
-217 c7 -734 134 -1266 389 -1621 136 -190 334 -359 495 -424 288 -115 580
-51 791 172 132 141 197 303 197 491 0 320 -182 577 -583 821 -51 31 -205 117
-343 192 -394 212 -560 323 -718 479 -44 44 -72 74 -62 67 30 -22 262 -18 351
5 92 24 222 85 299 140 l63 45 66 -24 c135 -50 257 -67 422 -62 158 5 229 19
353 70 133 55 276 175 355 298 236 370 130 898 -291 1442 -116 151 -279 322
-497 522 -256 235 -543 525 -704 710 l-114 130 79 6 c118 10 207 34 303 84 47
25 87 41 89 36 1 -4 25 -42 52 -83 198 -302 551 -358 951 -151 58 30 139 80
180 110 l74 56 45 -18 c172 -68 362 -89 539 -60 l109 18 93 -35 c123 -46 271
-84 400 -103 122 -17 374 -20 486 -4 92 12 255 48 266 58 4 4 -24 59 -63 122
-151 242 -286 552 -376 865 -57 199 -156 695 -142 709 2 3 706 -218 1563 -491
857 -272 1565 -492 1573 -489 26 10 10 356 -23 515 -129 619 -562 1254 -1243
1822 -203 170 -401 318 -867 648 -425 301 -608 436 -797 587 l-117 94 6 49 c5
47 11 56 87 128 209 202 243 231 263 226 11 -3 54 -39 97 -80 43 -41 82 -74
87 -74 5 0 14 -11 19 -25 5 -14 16 -25 25 -25 8 0 15 -4 15 -10 0 -5 6 -10 14
-10 7 0 32 -17 53 -38 22 -20 52 -44 67 -51 14 -8 26 -20 26 -27 0 -6 11 -15
24 -18 13 -3 26 -15 29 -27 3 -11 15 -23 26 -26 12 -3 21 -9 21 -14 0 -5 14
-9 30 -9 18 0 30 -5 30 -13 0 -15 73 -59 105 -64 11 -2 23 -10 28 -18 4 -8 28
-23 52 -34 25 -11 45 -25 45 -30 0 -6 7 -11 15 -11 8 0 15 -4 15 -8 0 -5 30
-18 68 -31 37 -12 75 -27 84 -32 10 -5 26 -9 36 -9 10 0 23 -5 28 -10 10 -10
52 -22 294 -83 52 -13 149 -29 215 -36 66 -7 153 -16 193 -22 105 -13 179 -11
442 11 281 24 400 39 400 51 0 5 7 9 16 9 24 0 63 49 70 89 9 45 -3 190 -16
206 -8 9 -5 14 10 18 19 5 20 13 20 150 l0 145 -123 65 c-141 73 -317 185
-317 202 0 6 7 20 15 32 28 40 78 178 96 268 37 176 19 409 -43 562 l-25 62
44 43 c24 24 58 72 76 108 30 61 32 71 32 175 0 98 -3 116 -27 167 -78 167
-263 262 -448 230 -75 -13 -173 -56 -204 -91 l-18 -20 -39 22 c-28 16 -39 29
-39 46 0 13 -7 70 -15 127 l-16 104 81 123 80 124 143 -48 c567 -192 1029
-211 1413 -59 231 92 389 229 479 415 66 138 85 255 65 390 -39 258 -184 456
-415 566 -221 105 -469 90 -753 -46 -96 -46 -148 -77 -311 -183 -22 -15 -20
-7 22 68 81 145 351 687 427 855 40 88 87 192 105 230 18 39 36 81 40 95 4 14
11 30 15 35 8 11 56 122 157 370 196 479 371 956 520 1410 36 110 81 247 100
305 35 107 144 464 168 555 8 28 23 82 33 120 65 233 85 308 122 451 101 392
160 637 160 664 0 16 -17 7 -87 -48 -85 -66 -265 -182 -283 -182 -5 0 -24 -8
-42 -18 -47 -26 -256 -108 -298 -117 -19 -4 -37 -10 -40 -14 -5 -7 -123 -39
-285 -77 -430 -102 -1019 -148 -1591 -125 -452 18 -1017 60 -1379 101 -49 6
-166 17 -260 26 -345 32 -531 51 -695 73 -41 6 -111 13 -155 16 -44 4 -152 15
-240 26 -186 24 -310 37 -450 49 -55 4 -156 15 -225 23 -69 9 -172 21 -230 27
-759 80 -853 89 -1481 147 l-67 6 9 31 c24 84 -2 214 -61 306 -79 124 -261
247 -427 291 -102 27 -253 29 -342 5 -186 -51 -363 -182 -561 -416 l-95 -112
-105 6 c-253 15 -697 26 -1088 26 l-424 0 7 63 c29 278 167 543 514 987 188
239 427 559 491 653 62 94 122 218 146 307 29 104 24 272 -10 380 -84 259
-269 433 -516 486 -92 19 -295 14 -385 -11 -90 -24 -250 -106 -340 -173 -322
-240 -520 -611 -581 -1084 -23 -182 -15 -539 16 -758 31 -208 33 -514 6 -640
-21 -99 -74 -240 -90 -240 -104 -3 -798 -56 -909 -70 -45 -5 -122 -12 -172
-14 -49 -2 -68 -1 -42 1 l48 4 -50 56 c-84 94 -142 226 -191 435 l-21 87 26
51 c39 78 56 156 56 260 0 205 -87 392 -271 584 -271 284 -681 476 -1175 552
-167 26 -577 26 -750 0 -167 -24 -339 -62 -473 -102 -62 -19 -117 -32 -123
-29 -5 4 -9 155 -9 373 l0 367 26 80 c19 58 28 109 31 185 6 123 -8 192 -62
304 -22 46 -35 88 -35 113 0 115 -68 556 -115 752 -18 74 -22 107 -14 111 6 4
47 12 92 18 490 68 958 19 1417 -149 89 -32 279 -120 491 -225 516 -257 667
-311 889 -321 190 -8 321 36 445 149 203 186 289 419 241 649 -55 258 -291
510 -631 674 -60 29 -140 63 -176 76 l-65 23 14 60 c39 166 -42 342 -195 423
-250 134 -546 -30 -570 -314 l-6 -63 -69 0 c-211 0 -564 -67 -818 -155 -361
-126 -711 -321 -1030 -576 l-99 -78 -17 47 c-40 108 -88 219 -139 322 -30 60
-55 112 -55 114 0 3 183 115 408 250 646 389 927 574 1192 785 602 479 1041
1102 1125 1595 19 114 19 327 0 439 -100 571 -591 1031 -1212 1137 -134 23
-379 26 -508 5z m-2670 -7982 c75 -95 193 -222 380 -408 366 -363 420 -446
440 -682 12 -136 -31 -277 -107 -350 -171 -165 -521 -191 -965 -73 -368 98
-716 280 -1055 552 -119 96 -345 298 -432 386 l-48 50 93 51 c201 110 427 211
709 316 130 48 853 293 871 294 3 1 54 -61 114 -136z m2306 98 c349 -107 573
-223 984 -506 138 -95 297 -200 355 -235 58 -34 107 -64 109 -66 8 -7 -73
-106 -134 -163 -111 -104 -238 -154 -385 -154 -197 1 -395 89 -617 275 -143
119 -252 274 -324 458 -41 104 -91 281 -104 373 -9 57 -10 57 116 18z m4507
-1078 c-10 -2 -28 -2 -40 0 -13 2 -5 4 17 4 22 1 32 -1 23 -4z m-341 -10 c-20
-2 -52 -2 -70 0 -17 2 0 4 38 4 39 0 53 -2 32 -4z m-214 -10 c-7 -2 -21 -2
-30 0 -10 3 -4 5 12 5 17 0 24 -2 18 -5z m2450 -10 c-7 -2 -21 -2 -30 0 -10 3
-4 5 12 5 17 0 24 -2 18 -5z m150 -10 c-7 -2 -19 -2 -25 0 -7 3 -2 5 12 5 14
0 19 -2 13 -5z m160 -10 c-7 -2 -19 -2 -25 0 -7 3 -2 5 12 5 14 0 19 -2 13 -5z
m257 -12 l45 -8 -40 -1 c-22 0 -62 3 -90 8 l-50 7 45 1 c25 0 65 -3 90 -7z
m143 -18 c-7 -2 -19 -2 -25 0 -7 3 -2 5 12 5 14 0 19 -2 13 -5z m174 -9 c-3
-3 -12 -4 -19 -1 -8 3 -5 6 6 6 11 1 17 -2 13 -5z m111 -11 c-16 -2 -40 -2
-55 0 -16 2 -3 4 27 4 30 0 43 -2 28 -4z m112 -9 c0 -2 -13 -4 -30 -4 -16 0
-30 4 -30 8 0 5 14 7 30 4 17 -2 30 -6 30 -8z m-4837 -11 c-7 -2 -19 -2 -25 0
-7 3 -2 5 12 5 14 0 19 -2 13 -5z m4950 0 c-7 -2 -21 -2 -30 0 -10 3 -4 5 12
5 17 0 24 -2 18 -5z m-5058 -14 c-22 -4 -56 -7 -75 -7 -32 1 -31 2 10 8 25 4
59 7 75 7 25 1 23 -1 -10 -8z m-132 -16 c-7 -2 -21 -2 -30 0 -10 3 -4 5 12 5
17 0 24 -2 18 -5z m-160 -20 c-7 -2 -21 -2 -30 0 -10 3 -4 5 12 5 17 0 24 -2
18 -5z m-156 -19 c-3 -3 -12 -4 -19 -1 -8 3 -5 6 6 6 11 1 17 -2 13 -5z m-184
-31 c-7 -2 -19 -2 -25 0 -7 3 -2 5 12 5 14 0 19 -2 13 -5z m-140 -20 c-7 -2
-21 -2 -30 0 -10 3 -4 5 12 5 17 0 24 -2 18 -5z m-300 -50 c-7 -2 -21 -2 -30
0 -10 3 -4 5 12 5 17 0 24 -2 18 -5z m-78 -13 c-27 -12 -43 -12 -25 0 8 5 22
9 30 9 10 0 8 -3 -5 -9z m-78 -16 c-3 -3 -12 -4 -19 -1 -8 3 -5 6 6 6 11 1 17
-2 13 -5z m-64 -11 c-7 -2 -19 -2 -25 0 -7 3 -2 5 12 5 14 0 19 -2 13 -5z
m-90 -20 c-7 -2 -21 -2 -30 0 -10 3 -4 5 12 5 17 0 24 -2 18 -5z m-66 -9 c-3
-3 -12 -4 -19 -1 -8 3 -5 6 6 6 11 1 17 -2 13 -5z m-44 -11 c-7 -2 -19 -2 -25
0 -7 3 -2 5 12 5 14 0 19 -2 13 -5z m-116 -19 c-3 -3 -12 -4 -19 -1 -8 3 -5 6
6 6 11 1 17 -2 13 -5z m-307 -64 c-8 -5 -22 -9 -30 -9 -10 0 -8 3 5 9 27 12
43 12 25 0z m-217 -57 c-7 -2 -21 -2 -30 0 -10 3 -4 5 12 5 17 0 24 -2 18 -5z
m-63 -13 c-8 -5 -19 -10 -25 -10 -5 0 -3 5 5 10 8 5 20 10 25 10 6 0 3 -5 -5
-10z m-63 -16 c-3 -3 -12 -4 -19 -1 -8 3 -5 6 6 6 11 1 17 -2 13 -5z m-67 -14
c-8 -5 -22 -9 -30 -9 -10 0 -8 3 5 9 27 12 43 12 25 0z m-121 -34 c-2 -2 -20
-6 -39 -10 -25 -4 -31 -3 -20 4 14 9 69 15 59 6z m-86 -23 c-7 -2 -19 -2 -25
0 -7 3 -2 5 12 5 14 0 19 -2 13 -5z m-156 -39 c-3 -3 -12 -4 -19 -1 -8 3 -5 6
6 6 11 1 17 -2 13 -5z m-117 -28 c0 -2 -7 -7 -16 -10 -8 -3 -12 -2 -9 4 6 10
25 14 25 6z m-110 -36 c-8 -5 -24 -9 -35 -9 -16 1 -16 2 5 9 35 11 48 11 30 0z
m-140 -34 c0 -2 -7 -7 -16 -10 -8 -3 -12 -2 -9 4 6 10 25 14 25 6z m-390 -126
c-8 -5 -19 -10 -25 -10 -5 0 -3 5 5 10 8 5 20 10 25 10 6 0 3 -5 -5 -10z m-43
-16 c-3 -3 -12 -4 -19 -1 -8 3 -5 6 6 6 11 1 17 -2 13 -5z m-42 -14 c-3 -5
-14 -10 -23 -9 -14 0 -13 2 3 9 27 11 27 11 20 0z m-60 -20 c-11 -5 -27 -9
-35 -9 -9 0 -8 4 5 9 11 5 27 9 35 9 9 0 8 -4 -5 -9z m-6055 -30 c0 -5 -5 -10
-11 -10 -5 0 -7 5 -4 10 3 6 8 10 11 10 2 0 4 -4 4 -10z m5880 -30 c-8 -5 -19
-10 -25 -10 -5 0 -3 5 5 10 8 5 20 10 25 10 6 0 3 -5 -5 -10z m-323 -116 c-3
-3 -12 -4 -19 -1 -8 3 -5 6 6 6 11 1 17 -2 13 -5z m-92 -34 c-3 -5 -11 -10
-16 -10 -6 0 -7 5 -4 10 3 6 11 10 16 10 6 0 7 -4 4 -10z m-4610 -68 c11 -3
22 -9 25 -13 3 -4 27 -9 53 -10 27 -2 50 -6 53 -10 2 -4 23 -10 47 -14 23 -4
54 -14 69 -21 15 -8 49 -14 77 -14 27 0 51 -5 53 -11 4 -13 72 -29 151 -36 31
-3 57 -8 57 -13 0 -5 34 -12 76 -15 60 -6 78 -5 85 6 7 10 8 5 4 -12 -5 -19
-2 -28 9 -32 12 -5 16 0 16 16 1 19 53 -110 80 -196 5 -15 16 -34 24 -43 9 -8
16 -23 16 -33 0 -10 12 -35 26 -56 14 -21 23 -44 20 -51 -3 -8 -2 -14 2 -14 8
0 15 -18 57 -145 15 -44 33 -96 40 -115 8 -19 17 -54 20 -78 4 -23 13 -49 21
-56 8 -8 14 -33 14 -56 0 -23 6 -54 14 -68 8 -15 22 -53 31 -84 9 -32 20 -58
24 -58 3 0 47 30 96 66 50 36 167 111 260 166 445 263 529 315 615 380 86 65
95 69 129 63 67 -13 285 -98 406 -160 66 -33 128 -59 137 -57 9 2 20 12 23 23
5 14 16 19 41 19 19 0 34 4 34 8 0 5 20 19 45 32 25 13 45 27 45 32 0 4 9 8
20 8 11 0 20 5 20 10 0 6 9 10 20 10 11 0 20 3 20 8 0 8 49 32 67 32 7 0 13 5
13 10 0 6 9 10 20 10 11 0 20 5 20 11 0 5 4 8 9 4 5 -3 22 6 37 20 15 14 32
25 38 25 18 0 66 24 66 33 0 4 6 7 13 7 9 0 12 -9 9 -29 -2 -16 1 -32 7 -35 7
-5 11 4 11 23 0 17 5 31 10 31 6 0 10 -47 10 -120 0 -73 -4 -120 -10 -120 -5
0 -10 -18 -10 -40 0 -29 -4 -40 -15 -40 -11 0 -15 -11 -15 -40 0 -36 -2 -40
-25 -40 -21 0 -25 5 -25 30 0 33 -24 42 -32 13 -7 -25 1 -43 18 -43 11 0 14
-18 14 -80 0 -60 3 -80 13 -80 9 0 12 -10 9 -31 -4 -25 1 -36 19 -50 13 -10
31 -19 40 -19 28 0 79 -55 79 -85 0 -14 4 -23 10 -20 13 8 51 -13 68 -37 17
-23 64 -48 92 -48 12 0 18 -5 15 -10 -4 -6 7 -13 24 -16 26 -6 31 -11 31 -35
0 -21 5 -29 18 -29 14 0 15 -2 2 -10 -8 -5 -70 -10 -137 -10 -99 0 -123 3
-123 14 0 31 -382 34 -402 4 -4 -8 -2 -15 4 -17 7 -2 14 1 16 8 5 14 62 15 62
0 0 -5 -8 -9 -17 -8 -33 3 -41 -1 -48 -23 -5 -18 -8 -19 -12 -8 -11 29 -28 29
-54 0 -15 -16 -30 -26 -33 -22 -4 3 -4 -2 0 -13 6 -14 4 -17 -8 -13 -10 4 -19
-2 -27 -18 -6 -13 -16 -24 -22 -24 -6 0 -9 -7 -5 -15 3 -8 1 -15 -3 -15 -5 0
-11 6 -13 12 -3 7 -13 0 -23 -17 -24 -39 -51 -65 -59 -58 -3 3 -15 -11 -27
-31 -11 -20 -25 -36 -31 -36 -5 0 -7 -10 -3 -22 4 -19 4 -21 -6 -7 -11 14 -16
14 -50 -5 -22 -12 -41 -31 -44 -45 -3 -13 -9 -20 -13 -17 -3 4 -14 -8 -24 -26
-9 -18 -17 -27 -18 -20 0 27 -20 0 -20 -29 0 -24 -4 -29 -25 -29 -23 0 -25 -3
-25 -50 0 -37 -4 -50 -15 -50 -10 0 -15 -15 -17 -57 -3 -49 -6 -58 -22 -58
-11 0 -21 -6 -23 -12 -3 -8 5 -13 21 -13 21 0 26 -5 26 -25 0 -25 -3 -26 -49
-24 -40 2 -52 7 -62 26 -7 13 -18 23 -25 23 -16 0 -70 49 -66 61 1 5 -4 9 -11
9 -7 0 -20 8 -28 18 -22 24 -59 48 -70 44 -5 -1 -9 5 -9 13 0 14 -22 20 -62
17 -13 -1 -18 6 -18 23 0 13 -4 27 -10 30 -5 3 -10 1 -10 -4 0 -6 -13 -11 -30
-11 -23 0 -30 4 -30 20 0 18 -7 20 -79 20 -44 0 -83 -5 -86 -10 -4 -6 -11 -8
-16 -5 -5 4 -9 2 -9 -3 0 -5 -20 -17 -44 -27 -25 -10 -43 -22 -40 -27 3 -4 -6
-8 -20 -8 -16 0 -26 -6 -26 -15 0 -16 -16 -21 -22 -6 -1 5 -24 12 -49 16 -43
6 -47 5 -53 -17 -5 -19 -8 -20 -15 -8 -9 12 -11 12 -17 -3 -3 -10 -11 -17 -18
-16 -22 4 -47 -13 -42 -30 3 -9 1 -23 -4 -31 -7 -12 -12 -10 -29 9 -20 23 -21
23 -21 3 0 -12 -34 -55 -87 -109 -49 -48 -87 -91 -85 -95 1 -5 -4 -8 -12 -8
-8 0 -17 -6 -19 -12 -4 -8 -6 -7 -6 4 -1 9 2 18 7 21 4 2 1 2 -6 0 -8 -1 -27
-3 -43 -3 -16 0 -29 -4 -29 -10 0 -5 9 -10 19 -10 11 0 23 -6 27 -12 4 -7 4
-10 0 -7 -8 8 -50 -29 -59 -51 -7 -19 -9 24 -7 186 1 96 -2 135 -12 145 -17
18 -23 59 -9 59 18 0 7 24 -19 43 -25 17 -90 21 -90 5 0 -4 -4 -8 -10 -8 -5 0
-10 12 -10 28 0 20 11 35 40 56 22 17 40 33 40 38 0 4 5 8 11 8 7 0 27 16 46
35 19 19 40 35 47 35 7 0 34 19 60 43 l48 43 -16 84 c-23 121 -37 160 -60 172
-12 6 -23 12 -26 12 -3 1 -4 5 -2 10 2 5 -4 4 -12 -3 -13 -11 -17 -10 -22 3
-3 9 -11 13 -17 9 -6 -3 -7 -1 -3 5 4 8 -3 16 -19 22 -34 13 -35 13 -35 -4 0
-12 -4 -12 -30 0 -16 9 -32 19 -34 23 -3 4 -24 8 -48 10 -23 1 -45 6 -48 11
-6 10 -240 13 -240 3 0 -4 -19 -9 -42 -9 -100 -3 -118 -7 -118 -26 0 -26 -79
-26 -81 0 -1 15 -2 15 -6 1 -6 -25 -73 -22 -73 3 0 10 10 20 25 24 16 4 25 13
25 25 0 10 6 19 14 19 7 0 30 18 50 40 20 22 43 40 51 40 15 0 75 57 75 71 0
5 6 9 14 9 16 0 86 62 86 76 0 5 14 20 30 34 17 14 30 34 30 45 0 24 14 47 26
45 5 -1 16 9 24 22 13 21 13 22 -1 10 -15 -11 -17 -3 -18 78 -1 57 2 90 8 90
7 0 10 30 9 83 l-2 82 -6 -75 -6 -75 -2 77 c-1 53 -7 81 -17 92 -8 8 -15 23
-15 33 -1 10 -11 26 -23 35 -12 10 -35 29 -52 43 -16 14 -42 25 -57 25 -21 0
-28 5 -28 20 0 13 -7 20 -19 20 -11 0 -21 5 -23 12 -2 6 -18 11 -36 10 -18 0
-32 4 -32 9 0 5 -7 9 -15 9 -8 0 -15 6 -15 13 0 16 -82 67 -109 67 -13 0 -26
9 -32 23 -7 16 -19 23 -41 24 -18 0 -37 8 -43 17 -7 9 -20 16 -29 16 -9 0 -16
4 -16 9 0 8 -23 20 -52 27 -5 1 -9 2 -10 4 -2 1 -11 3 -20 5 -10 2 -25 10 -34
19 -8 9 -24 16 -34 16 -21 0 -44 33 -32 45 4 3 3 6 -3 5 -23 -5 -34 1 -29 15
4 8 1 15 -5 15 -6 0 -11 -7 -11 -15 0 -19 -3 -19 -46 4 l-36 20 43 4 c24 2 51
1 59 -1 8 -2 24 -7 35 -10z m-435 -26 c0 -3 -4 -8 -10 -11 -5 -3 -10 -1 -10 4
0 6 5 11 10 11 6 0 10 -2 10 -4z m4640 -66 c-8 -5 -19 -10 -25 -10 -5 0 -3 5
5 10 8 5 20 10 25 10 6 0 3 -5 -5 -10z m-145 -60 c-3 -5 -12 -10 -18 -10 -7 0
-6 4 3 10 19 12 23 12 15 0z m-85 -40 c-20 -13 -33 -13 -25 0 3 6 14 10 23 10
15 0 15 -2 2 -10z m8717 4 c-3 -3 -12 -4 -19 -1 -8 3 -5 6 6 6 11 1 17 -2 13
-5z m-8772 -24 c-3 -5 -12 -10 -18 -10 -7 0 -6 4 3 10 19 12 23 12 15 0z m-85
-40 c0 -5 -8 -10 -17 -10 -15 0 -16 2 -3 10 19 12 20 12 20 0z m8960 -20 c0
-5 -4 -10 -10 -10 -5 0 -10 5 -10 10 0 6 5 10 10 10 6 0 10 -4 10 -10z m-9050
-24 c0 -2 -7 -6 -15 -10 -8 -3 -15 -1 -15 4 0 6 7 10 15 10 8 0 15 -2 15 -4z
m-43 -22 c-3 -3 -12 -4 -19 -1 -8 3 -5 6 6 6 11 1 17 -2 13 -5z m-37 -18 c0
-2 -7 -6 -15 -10 -8 -3 -15 -1 -15 4 0 6 7 10 15 10 8 0 15 -2 15 -4z m-70
-31 c-7 -8 -20 -15 -29 -15 -11 0 -8 5 9 14 33 19 35 19 20 1z m-63 -31 c-3
-3 -12 -4 -19 -1 -8 3 -5 6 6 6 11 1 17 -2 13 -5z m-27 -24 c0 -5 -9 -10 -21
-10 -11 0 -17 5 -14 10 3 6 13 10 21 10 8 0 14 -4 14 -10z m-56 -25 c-4 -8 -1
-15 5 -15 6 0 11 -4 11 -10 0 -5 -9 -10 -20 -10 -11 0 -20 -4 -20 -10 0 -5 -8
-2 -19 8 -18 17 -17 17 3 34 26 22 47 23 40 3z m96 0 c0 -9 -6 -12 -15 -9 -8
4 -15 10 -15 15 0 5 7 9 15 9 8 0 15 -7 15 -15z m-160 -450 c0 -8 -4 -15 -10
-15 -5 0 -10 7 -10 15 0 8 5 15 10 15 6 0 10 -7 10 -15z m2 -65 c-2 -16 -8
-30 -13 -30 -5 0 -9 14 -9 30 0 18 5 30 13 30 9 0 12 -10 9 -30z m-2 -59 c0
-6 -4 -13 -10 -16 -5 -3 -10 1 -10 9 0 9 5 16 10 16 6 0 10 -4 10 -9z m-2410
-912 c0 -20 -21 -49 -35 -49 -7 0 -15 -4 -17 -9 -1 -4 -12 -5 -23 -1 -19 7
-18 9 7 19 15 5 33 19 40 31 14 22 28 27 28 9z m-80 -73 c0 -2 -7 -6 -15 -10
-8 -3 -15 -1 -15 4 0 6 7 10 15 10 8 0 15 -2 15 -4z m1610 -231 c0 -8 -4 -15
-10 -15 -5 0 -7 7 -4 15 4 8 8 15 10 15 2 0 4 -7 4 -15z m-7815 -268 c181 -28
396 -83 457 -117 10 -6 24 -10 31 -10 7 0 18 -5 25 -12 6 -6 17 -13 24 -14 26
-4 113 -49 140 -72 8 -6 17 -9 20 -6 3 2 20 -10 39 -28 18 -18 29 -26 24 -18
-5 9 2 6 16 -6 13 -11 42 -32 64 -47 22 -14 46 -36 53 -47 7 -11 18 -20 26
-20 15 0 145 -139 160 -170 5 -11 13 -20 18 -20 4 0 8 -7 8 -15 0 -8 4 -15 9
-15 22 0 168 -281 156 -300 -3 -6 -2 -10 3 -10 5 0 13 -10 16 -22 49 -171 65
-262 72 -408 3 -63 1 -153 -5 -200 -6 -47 -13 -107 -16 -135 -3 -27 -15 -80
-25 -116 -11 -36 -20 -72 -20 -80 0 -8 -7 -27 -15 -43 -8 -15 -22 -49 -31 -75
-20 -61 -111 -225 -143 -259 -14 -15 -26 -30 -26 -34 0 -10 -16 -23 -28 -23
-7 -1 -11 -7 -9 -15 4 -17 -68 -91 -81 -83 -6 3 -7 1 -3 -5 8 -14 -22 -44 -37
-35 -7 3 -9 2 -4 -2 10 -11 -43 -66 -56 -58 -6 3 -7 2 -4 -4 3 -5 -12 -23 -34
-39 -22 -16 -60 -44 -85 -62 -24 -18 -49 -30 -54 -27 -6 4 -9 1 -8 -7 2 -7 -5
-12 -14 -12 -10 1 -16 -2 -15 -7 7 -27 -385 -203 -518 -234 -11 -2 -63 -16
-115 -30 -87 -23 -308 -64 -355 -65 -11 0 -85 -6 -165 -12 -184 -15 -462 1
-491 28 -37 33 -19 50 77 74 43 12 96 27 117 35 20 8 37 12 37 9 0 -3 7 2 16
10 8 9 22 16 30 16 14 0 92 38 104 50 10 10 120 80 126 80 6 0 70 59 154 143
26 26 45 47 42 47 -3 0 6 12 20 28 14 15 41 52 59 82 18 30 35 57 38 60 4 3
14 22 24 43 9 21 21 36 25 33 4 -2 8 6 8 19 1 12 13 52 27 87 34 83 77 247 85
323 12 109 8 426 -7 495 -25 121 -87 286 -119 319 -7 7 -11 20 -8 27 3 8 0 13
-7 11 -7 -1 -11 6 -11 15 1 10 -2 15 -7 13 -4 -3 -12 2 -17 10 -5 9 -45 53
-90 98 -65 66 -99 91 -174 129 -186 93 -249 108 -485 115 l-173 5 0 -2351 0
-2351 -695 0 -695 0 0 2354 c0 1295 -2 2360 -4 2367 -2 8 -7 46 -10 84 -4 65
-41 194 -69 247 -31 59 -98 130 -159 170 -63 40 -67 45 -67 81 l-1 38 1348 -4
c1208 -3 1358 -5 1457 -20z m5505 -962 c220 -26 456 -81 593 -138 20 -9 37
-14 37 -13 0 2 26 -7 58 -21 31 -13 69 -29 85 -34 15 -6 27 -16 27 -22 0 -6 3
-8 6 -4 3 3 19 1 35 -5 l29 -10 0 -430 0 -430 -42 25 c-24 13 -80 46 -124 73
-106 64 -148 88 -154 88 -19 3 -90 41 -90 48 0 5 -4 7 -9 3 -9 -5 -59 13 -71
25 -3 3 -9 6 -15 7 -5 0 -48 13 -95 27 -169 50 -240 59 -420 53 -166 -6 -294
-28 -361 -63 -16 -8 -36 -15 -46 -17 -33 -5 -195 -118 -254 -176 -45 -46 -170
-218 -175 -241 -1 -8 -15 -40 -37 -90 -11 -25 -21 -52 -22 -60 -2 -8 -12 -49
-23 -90 -41 -145 -55 -280 -54 -515 1 -232 2 -240 33 -405 26 -134 23 -123 54
-205 14 -38 27 -74 28 -80 1 -5 5 -12 8 -15 4 -3 18 -27 33 -55 48 -91 61
-111 103 -156 23 -24 52 -55 65 -70 13 -14 40 -36 60 -50 21 -13 38 -27 38
-31 0 -5 6 -8 14 -8 8 0 17 -7 20 -16 4 -9 9 -14 12 -11 4 3 37 -9 74 -28 218
-110 594 -126 900 -38 86 24 202 63 235 77 17 7 64 28 105 46 110 48 124 54
130 61 6 7 67 39 75 39 3 0 5 -180 5 -399 l0 -400 -55 -26 c-69 -32 -235 -97
-255 -99 -9 -1 -20 -5 -25 -8 -34 -19 -246 -77 -390 -106 -366 -75 -765 -62
-1085 33 -25 8 -64 19 -88 25 -23 6 -40 15 -37 20 3 6 0 7 -8 4 -46 -17 -430
186 -513 273 -12 12 -24 20 -26 18 -5 -6 -196 181 -252 245 -21 25 -43 55 -49
68 -6 12 -14 22 -19 22 -4 0 -8 6 -8 14 0 8 -4 16 -8 18 -27 10 -222 381 -208
395 3 4 2 11 -3 17 -10 13 -53 141 -70 206 -56 227 -66 323 -66 630 1 239 4
292 23 400 20 115 73 312 102 385 6 17 13 37 15 45 4 21 76 184 84 190 4 3 15
24 25 47 10 23 27 50 37 59 10 9 16 20 14 24 -3 5 10 23 27 41 18 18 27 29 19
25 -7 -5 -3 5 9 22 13 17 26 29 30 27 4 -3 7 3 6 13 0 9 5 16 12 14 8 -1 11 2
7 8 -3 5 -1 10 5 10 6 0 9 4 5 10 -3 5 6 17 20 26 14 9 25 22 25 28 0 18 219
226 238 226 4 0 13 9 20 20 7 11 19 20 26 20 8 0 16 4 18 8 5 13 159 112 174
112 7 0 14 3 16 8 5 11 156 83 178 85 11 1 20 4 20 8 0 6 140 57 173 63 7 1
28 7 47 14 211 70 635 101 920 67z m14212 10 c3 -3 39 -8 79 -10 76 -4 306
-46 369 -67 19 -7 40 -13 45 -14 55 -9 273 -88 355 -127 25 -12 47 -22 50 -22
3 0 15 -6 28 -13 l22 -13 0 -424 c0 -234 -2 -425 -5 -425 -9 0 -70 44 -73 53
-2 4 -10 7 -18 7 -9 0 -12 4 -9 10 3 6 -1 7 -9 4 -9 -3 -16 -1 -16 4 0 6 -10
14 -22 18 -13 4 -25 9 -28 13 -3 3 -41 24 -85 46 -44 22 -83 44 -86 48 -3 5
-8 8 -10 7 -2 -1 -17 4 -34 10 -62 25 -71 29 -130 50 -76 28 -180 55 -270 70
-92 16 -368 8 -451 -14 -127 -32 -193 -59 -271 -109 -24 -15 -46 -27 -51 -27
-7 0 -182 -168 -182 -176 0 -5 -77 -126 -90 -141 -5 -7 -10 -17 -10 -23 0 -6
-9 -28 -20 -49 -45 -89 -83 -235 -106 -404 -15 -113 -18 -580 -3 -602 3 -5 12
-45 18 -89 7 -43 21 -103 32 -134 11 -31 21 -67 24 -80 6 -35 94 -213 117
-239 12 -12 17 -27 13 -34 -5 -7 -4 -10 3 -5 13 8 54 -43 45 -57 -3 -5 -2 -7
4 -4 13 8 66 -47 56 -58 -5 -4 -3 -5 3 -2 7 4 29 -9 50 -29 38 -35 235 -139
285 -150 13 -3 69 -14 124 -24 55 -10 101 -19 103 -20 7 -3 260 0 272 3 8 3
62 12 120 21 125 20 171 33 350 98 200 73 199 73 277 117 40 23 75 41 78 41 3
0 5 -180 5 -400 l0 -399 -29 -15 c-16 -9 -31 -12 -35 -9 -3 4 -6 2 -6 -4 0 -6
-8 -13 -17 -16 -10 -3 -43 -15 -73 -27 -70 -28 -295 -105 -335 -115 -16 -4
-37 -9 -45 -11 -8 -2 -50 -12 -93 -24 -395 -102 -924 -81 -1287 51 -47 17 -96
34 -110 38 -42 14 -251 117 -260 130 -3 3 -17 13 -32 21 -69 38 -201 144 -287
230 -84 83 -199 221 -201 242 0 4 -12 20 -25 34 -14 15 -25 33 -25 40 0 8 -4
14 -10 14 -5 0 -10 6 -10 14 0 8 -7 22 -16 30 -9 9 -17 22 -18 29 -1 6 -10 24
-19 38 -34 51 -119 264 -110 273 4 3 2 6 -4 6 -9 0 -22 38 -28 85 -1 6 -5 17
-8 25 -55 142 -91 451 -84 725 5 213 24 363 63 510 13 50 26 97 28 106 13 52
46 146 73 209 35 84 129 262 146 277 9 9 17 22 17 30 0 7 5 13 10 13 6 0 10 6
10 13 0 7 15 31 33 53 18 21 45 56 60 76 55 74 144 163 247 246 58 46 113 87
123 89 9 3 17 9 17 14 0 5 5 9 11 9 6 0 25 11 42 24 18 13 73 44 124 70 230
115 476 185 760 215 89 9 447 14 455 6z m-16857 -2025 l0 -1925 -545 0 -545 0
-6 1805 c-3 993 -8 1814 -10 1825 -3 11 -14 34 -24 50 -22 35 -85 108 -85 99
0 -4 -7 -1 -15 6 -8 7 -15 25 -15 41 l0 29 623 -2 622 -3 0 -1925z m5085 1170
c0 -660 2 -760 15 -760 17 0 20 3 92 105 31 44 60 82 65 83 5 2 17 20 27 40
11 21 29 47 40 59 12 12 21 27 21 33 0 5 5 10 10 10 6 0 14 10 19 23 5 13 20
36 33 53 13 16 69 92 123 168 54 77 112 154 127 172 15 17 28 37 28 43 0 6 5
11 10 11 6 0 10 5 10 10 0 6 16 32 35 58 20 26 63 85 97 131 33 47 69 94 79
105 11 11 19 23 19 28 0 19 148 214 160 211 4 -1 7 5 6 15 0 9 4 16 11 15 7
-2 10 3 8 10 -3 6 9 28 26 47 17 19 37 47 45 63 l15 27 530 0 c500 -1 529 -2
517 -18 -7 -9 -51 -68 -96 -130 -46 -61 -88 -110 -93 -107 -5 4 -6 -1 -3 -9 4
-9 -1 -18 -10 -22 -9 -3 -16 -10 -16 -14 0 -17 -203 -280 -211 -274 -5 3 -6
-2 -3 -10 4 -9 -1 -18 -10 -22 -9 -3 -16 -10 -16 -14 0 -17 -203 -280 -211
-274 -5 3 -6 -2 -3 -10 4 -9 -1 -18 -10 -22 -9 -3 -16 -10 -16 -14 0 -19 -203
-279 -213 -273 -6 3 -7 1 -3 -5 8 -13 -33 -74 -44 -67 -4 3 -7 -3 -6 -13 0 -9
-5 -16 -12 -14 -8 1 -11 -2 -7 -8 3 -5 1 -10 -4 -10 -6 0 -10 -4 -9 -8 2 -5
-7 -21 -20 -38 -12 -16 -56 -74 -98 -129 -41 -55 -79 -99 -84 -98 -4 1 -7 -5
-6 -15 0 -9 -5 -16 -12 -14 -8 1 -11 -2 -7 -8 3 -5 1 -10 -5 -10 -6 0 -9 -4
-6 -8 3 -5 -5 -19 -17 -33 -39 -43 -68 -89 -56 -87 7 2 17 -6 23 -17 6 -12 21
-31 33 -45 13 -13 35 -42 50 -64 28 -41 204 -265 271 -345 21 -23 39 -48 41
-55 2 -6 12 -17 23 -24 10 -7 18 -17 18 -22 0 -5 10 -20 23 -33 27 -28 52 -58
133 -158 34 -42 70 -86 80 -96 33 -34 74 -83 74 -88 0 -5 51 -61 106 -117 20
-20 33 -41 29 -47 -3 -6 -3 -10 2 -9 12 4 52 -39 45 -48 -4 -4 -2 -4 5 -1 6 4
21 -5 32 -20 12 -16 60 -67 107 -115 57 -57 83 -91 78 -100 -4 -7 -3 -10 1 -5
11 10 66 -43 58 -56 -4 -6 -1 -7 6 -3 8 5 43 -23 98 -78 47 -47 89 -86 94 -86
4 0 22 -17 40 -37 18 -21 49 -50 68 -64 20 -15 45 -35 56 -45 19 -18 59 -51
115 -95 14 -11 70 -51 125 -89 55 -38 105 -73 111 -78 6 -5 20 -13 32 -16 12
-4 22 -12 22 -17 0 -5 7 -9 16 -9 9 0 12 -5 8 -12 -4 -7 -3 -8 4 -4 6 4 28 -4
49 -16 21 -13 50 -29 66 -36 41 -17 35 -42 -10 -44 -21 -1 -51 -3 -68 -5 -16
-2 -86 -10 -155 -18 -235 -26 -594 -17 -795 21 -178 33 -405 99 -405 117 0 4
-4 6 -9 2 -12 -7 -61 15 -61 27 0 5 -4 7 -9 4 -10 -7 -174 71 -179 85 -2 5
-10 9 -17 9 -22 0 -196 120 -190 130 3 6 -1 7 -9 4 -9 -4 -18 1 -22 10 -3 9
-12 16 -20 16 -8 0 -19 9 -26 20 -7 11 -17 20 -21 20 -5 0 -24 16 -43 35 -18
19 -36 35 -40 35 -8 0 -174 166 -174 175 0 4 -18 23 -40 42 -22 20 -40 40 -40
45 0 6 -12 22 -27 37 -40 39 -74 81 -65 81 4 0 -1 5 -11 11 -9 6 -15 15 -11
20 3 5 1 8 -3 7 -8 -3 -103 105 -103 116 0 3 -16 22 -35 43 -19 21 -35 43 -35
49 0 7 -7 14 -15 18 -8 3 -15 12 -15 20 0 8 -6 19 -13 23 -15 8 -127 158 -127
168 0 3 -11 18 -24 32 -14 15 -23 30 -20 35 3 4 1 8 -5 8 -6 0 -17 12 -25 28
-8 15 -26 41 -40 57 -14 17 -33 45 -41 63 -14 28 -32 38 -50 30 -3 -2 -5 -342
-5 -755 l0 -753 -545 0 -545 0 -2 1803 -3 1802 -29 60 c-16 33 -29 63 -28 67
1 3 -21 21 -48 38 -41 26 -50 37 -50 61 l0 29 625 0 625 0 0 -760z m3519 682
c13 -42 34 -111 47 -152 13 -41 60 -190 105 -330 44 -140 94 -299 110 -352 17
-53 32 -108 33 -121 0 -14 4 -23 8 -21 5 3 30 -78 34 -111 0 -5 6 -23 13 -40
14 -34 61 -179 66 -204 2 -9 10 -34 18 -56 8 -22 27 -80 42 -130 79 -258 157
-499 164 -507 6 -7 37 83 189 557 35 110 72 223 83 250 10 28 21 64 25 80 8
35 37 127 55 170 7 17 13 35 14 41 7 30 100 328 152 484 19 58 41 128 48 155
8 28 21 68 31 90 9 22 18 47 19 55 1 8 17 61 34 118 l33 102 337 0 338 0 38
-117 c21 -65 79 -246 131 -403 110 -337 108 -332 110 -345 0 -5 6 -23 13 -40
19 -45 64 -178 66 -195 1 -8 8 -28 14 -45 18 -43 114 -337 116 -355 1 -8 8
-28 14 -45 22 -54 70 -196 69 -203 -1 -4 3 -18 9 -32 5 -14 32 -94 59 -177 27
-84 51 -153 54 -153 5 0 31 80 99 300 16 52 35 109 42 125 6 17 13 37 14 45 2
15 4 23 55 190 17 52 53 169 81 260 28 91 66 212 84 270 18 58 45 146 60 195
15 50 31 95 35 100 5 6 8 13 8 18 1 37 25 116 34 111 6 -4 8 -3 5 2 -3 5 8 61
24 124 17 68 29 140 29 178 0 62 -2 66 -40 104 -24 25 -40 50 -40 64 l0 24
538 0 539 0 -643 -1927 -642 -1928 -416 -3 -415 -3 -16 54 c-8 29 -29 88 -45
130 -16 43 -32 88 -34 100 -3 12 -16 54 -31 92 -35 94 -54 155 -48 155 3 0 1
6 -4 13 -16 19 -54 127 -45 127 4 0 2 4 -3 8 -6 4 -25 52 -43 107 -18 55 -37
109 -42 120 -14 32 -92 259 -95 275 -1 8 -8 29 -15 45 -12 29 -45 124 -95 270
-13 39 -36 104 -51 145 -14 41 -27 82 -28 90 -1 8 -5 16 -9 18 -14 4 -27 2
-25 -5 2 -12 -20 -86 -39 -130 -9 -21 -18 -46 -20 -55 -4 -26 -60 -183 -72
-207 -7 -12 -10 -21 -7 -21 3 0 -13 -51 -35 -112 -22 -62 -42 -121 -44 -131
-2 -11 -18 -56 -34 -100 -17 -45 -46 -127 -64 -182 -19 -55 -64 -188 -100
-296 -37 -108 -74 -214 -84 -235 -9 -21 -17 -43 -17 -49 -1 -5 -17 -58 -36
-117 l-35 -108 -415 0 -416 0 -213 643 c-118 353 -220 656 -227 672 -7 17
-184 545 -394 1175 -210 629 -385 1150 -391 1156 -5 6 -6 14 -2 17 3 4 1 7 -5
7 -6 0 -13 9 -17 20 -3 11 -31 43 -61 71 -50 48 -64 76 -47 92 3 4 283 7 622
7 l616 0 24 -78z m5686 -1852 l0 -1925 -542 -3 -543 -2 0 1727 c0 1053 -4
1764 -10 1821 -12 116 -40 174 -104 220 -37 27 -46 39 -46 63 l0 29 623 -2
622 -3 0 -1925z m5093 1170 c-3 -848 -6 -816 63 -710 19 30 43 61 52 69 9 7
17 19 17 27 0 7 8 19 19 26 10 7 18 15 18 18 -3 15 86 130 95 124 7 -5 8 -2 3
6 -5 8 -2 17 7 24 8 6 17 19 21 29 4 10 11 16 16 13 5 -3 8 2 7 12 0 9 5 16
12 14 6 -1 11 1 10 5 -3 13 32 73 42 73 6 0 10 5 10 11 0 12 77 122 109 156
12 12 21 25 21 29 0 10 71 107 89 122 9 7 16 16 16 20 1 19 27 52 37 46 6 -4
8 -3 4 4 -3 6 1 17 9 25 8 9 15 19 15 24 0 5 12 22 28 39 15 16 28 33 29 37 1
5 11 20 22 35 12 15 46 63 77 107 32 44 61 82 65 83 5 2 9 10 9 18 0 8 3 14 8
14 4 0 16 16 26 35 11 19 32 47 47 62 16 16 29 33 29 38 0 6 13 26 28 45 16
19 34 45 41 58 l12 22 530 0 c501 0 529 -1 520 -17 -10 -19 -108 -145 -135
-175 -9 -10 -16 -21 -16 -26 0 -4 -12 -21 -27 -37 -16 -16 -40 -47 -54 -70
-25 -39 -111 -152 -143 -187 -9 -10 -16 -21 -16 -26 0 -4 -12 -21 -27 -37 -16
-16 -40 -47 -54 -70 -25 -39 -111 -152 -143 -187 -9 -10 -16 -21 -16 -26 0 -4
-12 -21 -27 -37 -16 -16 -40 -47 -54 -70 -24 -38 -110 -151 -142 -186 -8 -9
-16 -21 -18 -27 -2 -6 -16 -25 -32 -44 -28 -34 -130 -170 -182 -244 -16 -23
-43 -57 -58 -76 -15 -18 -55 -71 -88 -118 -33 -46 -65 -87 -71 -91 -7 -5 -4
-16 10 -34 12 -15 19 -31 16 -36 -3 -5 0 -8 8 -7 7 2 12 -5 12 -14 -1 -10 2
-15 7 -13 9 6 35 -35 31 -48 -1 -5 2 -6 7 -3 13 8 34 -21 25 -35 -4 -7 -3 -9
3 -6 6 4 32 -21 57 -56 26 -34 63 -81 84 -105 20 -24 42 -51 47 -61 15 -26 88
-115 103 -124 6 -4 12 -15 12 -22 0 -8 4 -15 9 -15 4 0 30 -28 56 -62 27 -35
64 -80 84 -100 19 -21 32 -38 29 -38 -4 0 20 -28 52 -62 33 -35 60 -67 60 -71
0 -5 12 -21 28 -36 45 -45 71 -79 64 -87 -4 -4 -2 -4 4 -1 15 9 38 -19 28 -34
-4 -7 -3 -9 3 -6 9 5 177 -167 178 -182 1 -3 86 -91 190 -195 105 -104 189
-193 187 -198 -1 -5 2 -7 7 -4 13 9 162 -124 154 -137 -3 -5 -2 -7 4 -4 10 6
33 -11 113 -78 19 -17 52 -42 72 -55 21 -14 38 -28 38 -32 0 -5 7 -8 15 -8 8
0 15 -4 15 -10 0 -5 15 -16 33 -25 17 -8 45 -26 61 -40 16 -14 35 -25 43 -25
7 0 13 -4 13 -10 0 -5 6 -10 14 -10 8 0 21 -6 28 -13 7 -7 32 -21 56 -31 23
-11 42 -23 42 -28 0 -4 6 -8 14 -8 15 0 46 -26 46 -39 0 -16 -291 -43 -511
-48 -230 -6 -379 4 -529 33 -41 8 -82 15 -90 15 -21 2 -222 56 -251 68 -13 5
-62 24 -109 41 -47 18 -93 39 -102 47 -10 9 -18 13 -18 9 0 -12 -233 120 -238
135 -2 5 -8 9 -14 9 -10 0 -160 115 -227 175 -88 77 -222 217 -291 304 -19 24
-54 64 -77 90 -24 25 -43 52 -43 59 0 6 -4 12 -9 12 -8 0 -126 148 -126 159 0
3 -15 21 -33 40 -17 19 -30 37 -28 39 3 2 -3 12 -12 22 -29 32 -51 62 -192
258 -17 23 -28 47 -25 52 4 6 1 9 -7 8 -7 -2 -12 5 -12 14 1 10 -2 15 -7 12
-5 -3 -12 3 -16 13 -9 23 -28 43 -42 43 -8 0 -11 -225 -11 -755 l0 -755 -550
0 -550 0 0 1773 c0 975 -2 1789 -6 1808 -10 57 -44 136 -69 159 -14 13 -22 27
-18 33 4 6 1 7 -6 2 -18 -10 -61 33 -61 62 l0 23 630 0 630 0 -2 -760z m2688
-1265 c63 -37 119 -96 146 -152 33 -69 32 -195 -1 -275 -25 -63 -113 -153
-138 -144 -8 3 -11 2 -8 -4 7 -12 -54 -29 -127 -37 -42 -4 -58 -2 -58 6 0 7
-4 10 -9 6 -5 -3 -34 4 -65 15 -56 21 -96 58 -140 128 -74 120 -54 294 47 400
17 17 37 32 44 32 7 0 13 4 13 9 0 5 28 19 63 30 85 28 169 23 233 -14z
m-2926 -2340 c0 -6 59 -342 65 -371 4 -18 -11 -13 -123 41 -70 34 -148 70
-174 81 -27 10 -48 22 -48 26 0 7 40 41 169 147 25 20 56 46 70 58 25 22 41
29 41 18z m-1715 -269 c113 -17 162 -31 202 -55 74 -46 91 -147 75 -445 -11
-196 -58 -784 -82 -1020 -6 -54 -10 -297 -10 -540 0 -520 -15 -870 -56 -1308
l-6 -67 -72 -6 c-86 -8 -239 10 -277 32 -43 25 -52 58 -57 191 -2 67 -6 122
-9 122 -3 0 -44 -36 -91 -81 -155 -147 -288 -227 -424 -255 -102 -21 -290 -5
-365 32 -148 72 -342 337 -409 560 -24 78 -27 111 -32 267 -10 405 57 704 211
940 174 267 406 398 705 398 185 0 279 -20 399 -86 l63 -35 0 28 c0 31 -42
392 -65 557 -8 61 -20 187 -27 281 -23 336 19 467 161 495 54 10 68 10 166 -5z
m-3753 -36 c53 -15 94 -53 115 -108 27 -69 24 -398 -5 -667 -27 -252 -39 -406
-52 -670 -5 -115 -12 -238 -14 -272 -2 -35 -2 -63 0 -63 3 0 59 42 127 93 112
85 525 388 633 465 52 36 79 39 149 15 56 -19 131 -88 158 -145 20 -42 22
-107 5 -130 -18 -23 -230 -148 -463 -273 -237 -127 -522 -292 -532 -308 -9
-15 220 -236 462 -442 116 -98 289 -256 385 -351 l175 -173 -1 -48 c-2 -133
-181 -303 -320 -303 l-52 0 -74 83 c-174 193 -371 432 -579 704 -67 87 -125
160 -130 161 -5 2 -9 -97 -9 -230 0 -435 -39 -690 -109 -728 -56 -30 -155 5
-278 96 l-63 47 7 821 c4 559 2 913 -6 1111 -15 368 -16 904 -1 1017 13 107
42 204 72 241 37 46 114 66 248 67 63 0 132 -5 152 -10z m1776 -709 c50 -25
82 -72 82 -120 0 -43 -59 -104 -115 -120 -104 -29 -241 2 -281 64 -22 33 -23
84 -4 120 15 27 63 61 108 76 47 15 163 4 210 -20z m-56 -352 c64 -14 91 -31
118 -74 18 -29 20 -49 20 -211 -1 -435 -34 -1093 -85 -1662 -16 -176 -28 -236
-56 -293 -20 -41 -72 -89 -96 -89 -50 0 -111 74 -168 205 l-35 80 1 760 c1
418 4 858 8 977 6 213 6 217 31 243 59 63 155 87 262 64z m3543 -9 c180 -36
364 -231 431 -456 18 -60 24 -205 11 -255 -12 -48 -123 -78 -179 -48 -31 17
-56 86 -68 186 -27 243 -109 342 -273 331 -137 -8 -269 -104 -339 -246 -39
-78 -43 -92 -43 -161 0 -64 5 -86 29 -136 30 -61 51 -83 388 -410 241 -234
342 -431 342 -665 0 -125 -18 -180 -95 -289 -55 -79 -104 -120 -194 -161 -136
-63 -359 -81 -509 -41 -187 50 -360 177 -434 319 -71 135 -117 361 -93 450 27
96 153 161 294 149 94 -8 113 -27 122 -124 30 -326 94 -509 198 -561 45 -24
51 -24 120 -13 99 16 153 51 190 121 27 51 29 61 25 140 -6 105 -37 178 -126
296 -75 99 -160 180 -345 328 -210 168 -300 272 -343 396 -16 45 -19 83 -19
210 1 150 2 158 33 240 84 222 235 346 492 406 62 15 300 11 385 -6z m-96
-825 c29 -10 36 -19 52 -70 l18 -58 -75 74 c-41 40 -74 75 -74 77 0 3 20 -2
79 -23z m608 -177 c-3 -7 -5 -2 -5 12 0 14 2 19 5 13 2 -7 2 -19 0 -25z
m-1570 -221 l52 -70 -42 -30 c-23 -16 -52 -39 -64 -50 l-23 -20 1 139 c0 112
3 135 12 120 7 -10 35 -51 64 -89z m-4945 -876 c3 -306 -1 -288 96 -368 l51
-42 -59 -19 -59 -20 -19 51 c-52 140 -173 535 -184 602 -2 16 9 23 72 41 41
12 80 22 87 23 9 1 13 -68 15 -268z m932 -57 c26 -31 46 -59 46 -63 0 -8 -121
-53 -127 -47 -4 4 28 166 33 166 2 0 23 -25 48 -56z m-2832 -261 c81 -168 86
-183 61 -183 -35 0 -200 32 -315 61 -111 28 -315 96 -403 134 l-40 18 255 43
c140 24 275 47 300 52 25 6 52 10 61 11 11 1 36 -42 81 -136z m251 -200 c-7
-2 -19 -2 -25 0 -7 3 -2 5 12 5 14 0 19 -2 13 -5z m354 1 c-3 -3 -12 -4 -19
-1 -8 3 -5 6 6 6 11 1 17 -2 13 -5z m-3246 -131 c13 -16 12 -17 -3 -4 -10 7
-18 15 -18 17 0 8 8 3 21 -13z m114 -113 c10 -11 16 -20 13 -20 -3 0 -13 9
-23 20 -10 11 -16 20 -13 20 3 0 13 -9 23 -20z m2714 -355 l3 -195 -103 -108
c-309 -321 -404 -644 -268 -915 38 -74 151 -190 225 -232 l51 -28 11 -191 c10
-167 39 -390 57 -437 4 -12 -10 -19 -67 -32 -397 -91 -860 -88 -1253 8 -174
43 -155 17 -155 212 0 93 -4 229 -10 303 -26 373 -42 763 -45 1115 l-3 390
202 -3 c368 -6 715 54 1063 184 76 28 288 119 288 123 0 1 2 -87 4 -194z m71
-139 c0 -2 -8 -10 -17 -17 -16 -13 -17 -12 -4 4 13 16 21 21 21 13z m1960
-519 c0 -2 -19 -21 -42 -42 l-43 -40 40 43 c36 39 45 47 45 39z m-150 -141 c0
-2 -8 -10 -17 -17 -16 -13 -17 -12 -4 4 13 16 21 21 21 13z m-80 -70 c0 -2 -8
-10 -17 -17 -16 -13 -17 -12 -4 4 13 16 21 21 21 13z m-1353 -702 c-3 -3 -12
-4 -19 -1 -8 3 -5 6 6 6 11 1 17 -2 13 -5z m1263 -28 c0 -2 -8 -10 -17 -17
-16 -13 -17 -12 -4 4 13 16 21 21 21 13z m-90 -80 c0 -2 -8 -10 -17 -17 -16
-13 -17 -12 -4 4 13 16 21 21 21 13z m-80 -70 c0 -2 -8 -10 -17 -17 -16 -13
-17 -12 -4 4 13 16 21 21 21 13z m3391 -273 c13 -16 12 -17 -3 -4 -17 13 -22
21 -14 21 2 0 10 -8 17 -17z m-4807 -61 c3 -5 -18 -31 -47 -58 l-52 -49 48 51
c26 27 44 53 41 57 -4 4 -5 7 -1 7 3 0 8 -4 11 -8z m4946 -87 c35 -36 62 -65
59 -65 -2 0 -34 29 -69 65 -35 36 -62 65 -59 65 2 0 34 -29 69 -65z m-393
-442 c-3 -10 -5 -4 -5 12 0 17 2 24 5 18 2 -7 2 -21 0 -30z"/>
<path d="M12350 19330 c0 -5 7 -10 15 -10 8 0 15 5 15 10 0 6 -7 10 -15 10 -8
0 -15 -4 -15 -10z"/>
<path d="M12430 19220 c0 -64 3 -80 15 -80 19 0 21 75 3 84 -10 5 -10 7 0 12
18 8 16 64 -3 64 -12 0 -15 -16 -15 -80z"/>
<path d="M12352 18844 c-2 -29 3 -44 13 -48 9 -3 15 0 15 9 0 8 -4 15 -9 15
-6 0 -12 15 -14 33 -3 28 -4 27 -5 -9z"/>
<path d="M10221 18554 c0 -11 3 -14 6 -6 3 7 2 16 -1 19 -3 4 -6 -2 -5 -13z"/>
<path d="M12700 18460 c0 -11 5 -20 10 -20 6 0 10 9 10 20 0 11 -4 20 -10 20
-5 0 -10 -9 -10 -20z"/>
<path d="M10120 17961 c0 -5 7 -11 14 -14 10 -4 13 -1 9 9 -6 15 -23 19 -23 5z"/>
<path d="M28400 13994 l0 -232 28 -4 c49 -7 52 -2 52 93 0 71 3 91 15 95 22 9
67 -5 62 -19 -2 -7 5 -20 15 -29 11 -9 20 -23 22 -30 1 -7 14 -30 29 -49 15
-20 27 -41 27 -47 0 -8 19 -12 50 -12 28 0 50 4 50 8 0 4 -25 47 -55 96 -30
48 -55 89 -55 92 0 2 9 4 20 4 31 0 87 56 93 93 6 43 -16 113 -43 135 -17 13
-43 19 -104 21 -44 1 -109 6 -143 10 l-63 7 0 -232z m245 122 c29 -24 29 -26
15 -53 -9 -15 -23 -28 -32 -28 -9 0 -20 -4 -24 -8 -4 -4 -31 -7 -61 -7 l-53 0
0 60 0 60 63 0 c51 0 67 -4 92 -24z"/>
<path d="M23296 10039 c-38 -11 -82 -29 -97 -40 -99 -70 -253 -394 -311 -650
-20 -89 -23 -131 -23 -294 1 -223 14 -310 61 -404 43 -86 120 -167 174 -181
81 -22 163 21 290 150 142 145 256 328 351 563 l54 132 -1 160 c0 184 -14 255
-70 367 -40 80 -118 164 -179 193 -58 28 -163 30 -249 4z m57 -283 c47 -19
101 -87 133 -165 25 -59 28 -81 32 -212 l4 -146 -37 -94 c-74 -185 -133 -287
-219 -377 -96 -100 -111 -110 -136 -87 -42 38 -68 124 -78 265 -21 272 15 456
136 700 45 91 62 116 82 122 39 10 48 9 83 -6z"/>
<path d="M16487 6655 c-50 -17 -85 -50 -108 -100 -33 -70 -18 -139 44 -203 45
-47 78 -62 137 -62 225 0 249 307 29 370 -43 13 -56 12 -102 -5z"/>
<path d="M21267 28869 c-206 -50 -409 -206 -506 -389 -79 -148 -113 -324 -94
-479 43 -340 268 -595 613 -693 27 -7 102 -12 190 -12 137 0 150 2 240 32 136
47 220 100 325 206 79 79 98 105 142 196 70 142 87 216 86 365 -1 190 -50 336
-164 487 -100 133 -271 245 -443 288 -105 27 -279 26 -389 -1z"/>
<path d="M8465 28076 c-276 -63 -494 -276 -571 -557 -24 -88 -24 -280 0 -369
45 -166 157 -338 303 -465 145 -127 306 -229 663 -420 473 -253 708 -430 900
-677 l68 -87 6 37 c9 59 7 441 -4 622 -48 767 -214 1254 -544 1597 -154 161
-282 246 -446 298 -104 33 -279 43 -375 21z"/>
<path d="M10172 27759 c-164 -81 -125 -328 57 -363 76 -14 169 36 202 108 47
103 7 209 -96 257 -53 25 -110 24 -163 -2z"/>
<path d="M17849 27365 c-60 -19 -143 -94 -177 -159 -21 -42 -26 -65 -26 -131
-1 -104 26 -167 98 -233 70 -63 135 -86 230 -80 311 20 399 433 125 583 -65
35 -176 44 -250 20z"/>
<path d="M24794 27006 c-318 -73 -534 -341 -534 -661 0 -191 62 -338 200 -476
98 -98 182 -146 314 -179 301 -76 627 75 760 352 56 119 71 179 71 303 0 124
-15 184 -71 303 -78 162 -234 292 -414 347 -76 22 -249 28 -326 11z"/>
<path d="M16045 23991 c-54 -13 -95 -41 -123 -83 -23 -35 -27 -52 -27 -108 0
-55 4 -73 27 -107 76 -114 256 -109 328 10 70 114 -5 269 -140 290 -19 3 -48
2 -65 -2z"/>
<path d="M25840 23659 c-213 -42 -367 -263 -331 -475 59 -337 466 -469 706
-229 238 238 110 642 -224 705 -62 11 -88 11 -151 -1z"/>
<path d="M29238 14080 c-138 -43 -185 -202 -90 -304 113 -120 316 -37 316 129
0 115 -121 209 -226 175z"/>
<path d="M29858 11880 c-207 -35 -404 -158 -522 -324 -155 -219 -193 -481
-107 -734 87 -252 296 -444 562 -513 114 -30 280 -30 394 0 369 97 623 442
601 816 -12 219 -93 393 -249 542 -119 113 -246 178 -405 209 -79 15 -197 17
-274 4z"/>
<path d="M26550 8074 c0 -14 143 -234 214 -327 277 -370 625 -557 1034 -557
256 0 467 59 694 193 l87 51 -937 298 c-1103 351 -1092 348 -1092 342z"/>
<path d="M25585 7747 c-90 -37 -131 -75 -169 -157 -67 -144 -5 -315 140 -386
43 -21 70 -27 123 -27 306 0 408 394 142 551 -36 21 -59 26 -125 29 -48 1 -93
-2 -111 -10z"/>
<path d="M21529 6865 c-4 -5 -34 -76 -68 -156 -163 -386 -338 -703 -714 -1289
-293 -457 -405 -652 -500 -870 -142 -327 -205 -621 -194 -914 6 -182 37 -295
118 -434 46 -77 199 -228 279 -275 87 -50 197 -92 299 -112 126 -26 335 -17
456 19 363 108 631 390 754 792 67 219 86 383 78 679 -10 375 -45 556 -243
1243 -182 631 -241 907 -253 1182 -3 80 -9 141 -12 135z"/>
<path d="M8083 6551 c-313 -115 -375 -532 -109 -728 238 -175 576 -56 652 231
50 188 -45 390 -225 479 -58 28 -75 32 -165 34 -79 2 -112 -2 -153 -16z"/>
<path d="M11915 5129 c-247 -32 -488 -172 -637 -369 -67 -88 -143 -246 -170
-355 -33 -134 -31 -333 5 -468 27 -100 81 -219 138 -304 51 -77 208 -224 288
-271 164 -97 313 -137 506 -136 159 1 266 24 403 89 414 196 627 642 522 1093
-81 345 -357 620 -705 702 -98 23 -256 32 -350 19z"/>
<path d="M24307 4630 c-89 -23 -167 -83 -209 -163 -33 -61 -33 -203 0 -264 35
-66 79 -110 140 -140 74 -36 182 -39 253 -6 113 51 172 140 177 268 4 75 2 84
-30 145 -37 71 -102 129 -168 149 -57 17 -121 21 -163 11z"/>
<path d="M14663 3632 c-67 -24 -113 -60 -151 -118 -129 -194 14 -457 248 -457
164 0 294 130 294 293 0 82 -15 127 -64 189 -74 94 -214 133 -327 93z"/>
<path d="M22068 3031 c-113 -37 -163 -179 -97 -275 56 -83 172 -106 250 -51
61 43 81 86 77 161 -6 98 -64 159 -160 169 -24 2 -55 0 -70 -4z"/>
</g>
</svg>
